<svg width="700" height="701" viewBox="0 0 700 701" fill="none" xmlns="http://www.w3.org/2000/svg">
<path d="M524.588 542.733C497.933 569.402 394.295 508.951 293.107 407.712C191.919 306.473 131.498 202.783 158.153 176.115C184.808 149.446 288.446 209.897 389.634 311.136C490.823 412.375 551.243 516.065 524.588 542.733Z" fill="#101010"/>
<path d="M375.801 620.24C354.239 641.813 270.696 593.204 189.202 511.669C107.708 430.134 59.1232 346.549 80.6851 324.977C102.247 303.404 185.79 352.013 267.284 433.547C348.778 515.082 397.363 598.667 375.801 620.24Z" fill="#101010"/>
<path d="M243.613 697.132C226.805 713.948 159.503 673.877 93.289 607.63C27.0751 541.383 -12.9761 474.047 3.83204 457.23C20.6402 440.414 87.9428 480.485 154.157 546.732C220.37 612.979 260.422 680.315 243.613 697.132Z" fill="#101010"/>
<path d="M692.435 449.848C660.347 481.953 535.376 408.971 413.305 286.839C291.234 164.706 218.288 39.6729 250.377 7.56861C282.465 -24.5357 407.436 48.4464 529.507 170.579C651.578 292.711 724.523 417.744 692.435 449.848Z" fill="#101010"/>
<path d="M522.436 163.505L536.577 177.653L105.586 608.86L91.4446 594.712L522.436 163.505Z" fill="#101010"/>
<path d="M391.345 60.9114L408.325 71.4811L92.4907 579.376L75.5105 568.806L391.345 60.9114Z" fill="#101010"/>
<path d="M247.757 10.7265L266.5 20L22.1471 466.716L4.61568 457.089L247.757 10.7265Z" fill="#101010"/>
<path d="M676.159 436.64L685.781 454.18L238.714 699.674L229.092 682.134L676.159 436.64Z" fill="#101010"/>
<path d="M632.468 289.585L643.033 306.573L135.402 622.581L124.837 605.593L632.468 289.585Z" fill="#101010"/>
</svg>
