<svg width="1200" height="1200" viewBox="0 0 1200 1200" fill="none" xmlns="http://www.w3.org/2000/svg">
<rect width="1200" height="1200" fill="#101010"/>
<path d="M799.529 819.267C769.066 849.745 650.623 780.658 534.979 664.956C419.336 549.255 350.283 430.752 380.746 400.274C411.209 369.796 529.653 438.883 645.296 554.584C760.94 670.286 829.993 788.788 799.529 819.267Z" fill="#FEFEFE"/>
<path d="M629.487 907.846C604.844 932.5 509.366 876.947 416.23 783.765C323.094 690.582 267.569 595.056 292.212 570.402C316.854 545.747 412.332 601.3 505.468 694.483C598.604 787.665 654.129 883.191 629.487 907.846Z" fill="#FEFEFE"/>
<path d="M478.415 995.722C459.206 1014.94 382.289 969.145 306.616 893.434C230.943 817.723 185.17 740.768 204.379 721.549C223.589 702.33 300.506 748.126 376.179 823.836C451.852 899.547 497.625 976.503 478.415 995.722Z" fill="#FEFEFE"/>
<path d="M991.355 713.113C954.682 749.803 811.858 666.395 672.349 526.815C532.839 387.236 449.472 244.34 486.145 207.65C522.817 170.959 665.641 254.367 805.151 393.947C944.66 533.527 1028.03 676.422 991.355 713.113Z" fill="#FEFEFE"/>
<path d="M797.07 385.862L813.231 402.032L320.669 894.84L304.508 878.671L797.07 385.862Z" fill="#FEFEFE"/>
<path d="M647.251 268.613L666.657 280.693L305.704 861.144L286.298 849.064L647.251 268.613Z" fill="#FEFEFE"/>
<path d="M483.151 211.259L504.571 221.857L225.311 732.39L205.275 721.388L483.151 211.259Z" fill="#FEFEFE"/>
<path d="M972.754 698.017L983.75 718.063L472.816 998.628L461.82 978.582L972.754 698.017Z" fill="#FEFEFE"/>
<path d="M922.821 529.954L934.895 549.369L354.745 910.521L342.671 891.106L922.821 529.954Z" fill="#FEFEFE"/>
</svg>
