<svg width="900" height="900" viewBox="0 0 900 900" fill="none" xmlns="http://www.w3.org/2000/svg">
<rect width="900" height="900" rx="450" fill="white"/>
<path d="M607.378 623.884C583.274 648.005 489.555 593.329 398.052 501.762C306.549 410.195 251.911 316.411 276.015 292.29C300.119 268.169 393.838 322.845 485.341 414.412C576.844 505.98 631.482 599.763 607.378 623.884Z" fill="#101010"/>
<path d="M472.831 693.986C453.333 713.498 377.786 669.533 304.092 595.788C230.399 522.042 186.464 446.442 205.962 426.931C225.461 407.419 301.008 451.384 374.701 525.129C448.395 598.875 492.329 674.475 472.831 693.986Z" fill="#101010"/>
<path d="M353.296 763.532C338.097 778.742 277.236 742.499 217.36 682.581C157.484 622.663 121.266 561.759 136.465 546.549C151.665 531.339 212.525 567.583 272.402 627.501C332.278 687.419 368.496 748.322 353.296 763.532Z" fill="#101010"/>
<path d="M759.159 539.873C730.142 568.91 617.133 502.9 506.746 392.436C396.359 281.971 330.395 168.883 359.412 139.846C388.429 110.808 501.438 176.818 611.825 287.283C722.213 397.747 788.176 510.836 759.159 539.873Z" fill="#101010"/>
<path d="M605.432 280.884L618.219 293.681L228.479 683.694L215.692 670.897L605.432 280.884Z" fill="#101010"/>
<path d="M486.888 188.092L502.243 197.652L216.638 657.026L201.283 647.466L486.888 188.092Z" fill="#101010"/>
<path d="M357.043 142.702L373.992 151.089L153.027 555.129L137.174 546.422L357.043 142.702Z" fill="#101010"/>
<path d="M744.441 527.926L753.142 543.791L348.866 765.832L340.165 749.967L744.441 527.926Z" fill="#101010"/>
<path d="M704.932 394.92L714.486 410.285L255.442 696.104L245.888 680.738L704.932 394.92Z" fill="#101010"/>
</svg>
